# xmcd
# Track frame offsets:
# 151
# 13302
# 26567
# 39430
# 54503
# 67450
# 79203
# 90864
# 114507
# 130515
# 148584
# 163481
# 188376
# 211277
# 243862
# 259125
# 277224
# 289657
#
# Disc length: 4078 seconds
# Revision: 0
# Processed by: cddbd v1.5.2PL0 Copyright (c) Steve Scherf et al.
# Submitted via: VisiTrax 2.10.3.257 - For more info visit www.synapsa.com
#
DISCID=060fec12
DTITLE=Various Artist - Pure Soul Vol. 1
DYEAR=1994
DGENRE=Soul
TTITLE0=Percy Sledge - When A Man Loves A Woman
TTITLE1=Eddie Floyd - Knock On Wood
TTITLE2=Mary Wells - My Guy
TTITLE3=James Brown - I Feel Good
TTITLE4=Three Degrees - When Will I See You Again
TTITLE5=Sam and Dave - Soul Man
TTITLE6=Maxine Brown - Oh No Not My Baby
TTITLE7=Al Jarreau - You
TTITLE8=Sister Sledge - We Are Family
TTITLE9=Marvin Gaye - What's Goin' On
TTITLE10=Rufus Thomas - Do The Funky Chicken
TTITLE11=Silver Convention - Fly Robin Fly
TTITLE12=Sister Sledge - Lost In Music
TTITLE13=Rose Royce - Love Don't Live Here Anymore
TTITLE14=Al Jarreau - Same Love That Made Me Laugh
TTITLE15=Tavares - Never Had A Love Like This Before
TTITLE16=Climax - Precious And Few
TTITLE17=Al Jarreau - Lonely Town, Lonely Street
EXTD=
EXTT0=
EXTT1=
EXTT2=
EXTT3=
EXTT4=
EXTT5=
EXTT6=
EXTT7=
EXTT8=
EXTT9=
EXTT10=
EXTT11=
EXTT12=
EXTT13=
EXTT14=
EXTT15=
EXTT16=
EXTT17=
PLAYORDER=
